<?xml version="1.0" standalone="no"?><!DOCTYPE svg PUBLIC "-//W3C//DTD SVG 1.1//EN" "http://www.w3.org/Graphics/SVG/1.1/DTD/svg11.dtd"><svg t="1663035111975" class="icon" viewBox="0 0 1024 1024" version="1.1" xmlns="http://www.w3.org/2000/svg" p-id="2393" width="64" height="64" xmlns:xlink="http://www.w3.org/1999/xlink"><path d="M256.011 187.191957c-56.597568 0-102.3956 45.798032-102.395601 102.3956v511.978001c0 56.597568 45.798032 102.3956 102.395601 102.3956h511.978c56.597568 0 102.3956-45.798032 102.395601-102.3956v-511.978001c0-56.597568-45.798032-102.3956-102.395601-102.3956H256.011m0-102.395601h511.978c113.09514 0 204.7912 91.69606 204.791201 204.791201v511.978001c0 113.09514-91.69606 204.7912-204.791201 204.7912H256.011c-113.09514 0-204.7912-91.69606-204.791201-204.7912v-511.978001c0-113.09514 91.69606-204.7912 204.791201-204.791201z" p-id="2394"></path><path d="M665.5934 391.983157H358.4066c-28.298784 0-51.1978-22.899016-51.1978-51.1978s22.899016-51.1978 51.1978-51.1978h307.1868c28.298784 0 51.1978 22.899016 51.1978 51.1978s-22.899016 51.1978-51.1978 51.1978zM665.5934 596.774357H358.4066c-28.298784 0-51.1978-22.899016-51.1978-51.1978s22.899016-51.1978 51.1978-51.1978h307.1868c28.298784 0 51.1978 22.899016 51.1978 51.1978 0 28.298784-22.899016 51.1978-51.1978 51.1978zM665.5934 801.565558H358.4066c-28.298784 0-51.1978-22.899016-51.1978-51.1978s22.899016-51.1978 51.1978-51.1978h307.1868c28.298784 0 51.1978 22.899016 51.1978 51.1978s-22.899016 51.1978-51.1978 51.1978zM307.2088 135.994157v-84.796357c0-28.298784 22.899016-51.1978 51.1978-51.1978s51.1978 22.899016 51.1978 51.1978v84.796357c0 28.298784-22.899016 51.1978-51.1978 51.1978s-51.1978-22.899016-51.1978-51.1978zM614.3956 135.994157v-84.796357c0-28.298784 22.899016-51.1978 51.1978-51.1978s51.1978 22.899016 51.1978 51.1978v84.796357c0 28.298784-22.899016 51.1978-51.1978 51.1978s-51.1978-22.899016-51.1978-51.1978z" p-id="2395"></path></svg>